<svg id="Layer_1" data-name="Layer 1" xmlns="http://www.w3.org/2000/svg" viewBox="0 0 252 180"><defs><style>.cls-1{fill:#f9a01b;}</style></defs><path class="cls-1" d="M92.89,90.14c0,.09-.08.14-.13.19a2.5,2.5,0,0,1-.24.22c-1.49,1.33-4.43,3.75-6.38,4a3.71,3.71,0,0,1-2.76-.91,4.16,4.16,0,0,1,1.76-7.36,3.29,3.29,0,0,1,.44,0h.33a6.51,6.51,0,0,1,2.53.93,40.06,40.06,0,0,1,3.68,2.33l.54.38.09.06,0,0,0,0h0a.07.07,0,0,1,0,0,.15.15,0,0,1,0,.09Zm-.28,0s0,.09,0,.09h0L92,89.7c-1.29-1-4.58-3.53-6.2-3.41A3.07,3.07,0,0,0,83.3,88a4.63,4.63,0,0,0-.57,2.26,3.46,3.46,0,0,0,3.15,3.46c1.56,0,5.19-2.59,6.6-3.55l.09-.06.07,0h0a.1.1,0,0,0,0,.09Z"/><path class="cls-1" d="M92.79,90.15a.29.29,0,0,0,0-.09h0l.16.09c.78.43,2,1.21,2.8,1.67s1.45.88,2.2,1.26a5.73,5.73,0,0,0,1.44.54,3.54,3.54,0,0,0,3.56-3.36,3.9,3.9,0,0,0-1.1-3,3.3,3.3,0,0,0-1.79-1,3.13,3.13,0,0,0-.43,0,.81.81,0,0,0-.22,0,6.71,6.71,0,0,0-2.42.94c-.5.29-1,.6-1.47.92-.94.65-1.85,1.34-2.72,2.08l0,0h0a.13.13,0,0,0,0-.08Zm-.29,0a.18.18,0,0,1,.1-.14l.13-.09.54-.38c1.44-1,4.56-3.2,6.22-3.26a5.16,5.16,0,0,1,.54,0,3.77,3.77,0,0,1,2.37,1.45,4.5,4.5,0,0,1,.95,2.49,4.26,4.26,0,0,1-3.08,4.34,4.32,4.32,0,0,1-.88.1,3.73,3.73,0,0,1-1.13-.24,16,16,0,0,1-5.56-4l-.13-.14,0,0a.17.17,0,0,1,0-.11Z"/><path class="cls-1" d="M92.64,90.4a.21.21,0,0,1-.1,0l-.06,0a5.39,5.39,0,0,1-1.36-1.1,10.46,10.46,0,0,1-1.07-1.41c-.34-.49-.66-1-1-1.51a7.5,7.5,0,0,1-1-2.64,3.69,3.69,0,0,1,.07-1,4.54,4.54,0,0,1,4.42-3.39A4.74,4.74,0,0,1,96,80.81a3.8,3.8,0,0,1,.94,2.73,5.19,5.19,0,0,1-.6,1.79,21.81,21.81,0,0,1-1.4,2.26c-.66.92-1.36,1.81-2.09,2.67a.3.3,0,0,1-.19.14Zm0-.29a.12.12,0,0,0-.1,0h0l.23-.33a38.19,38.19,0,0,0,2.5-4,6.56,6.56,0,0,0,.81-2.28v-.18a2.35,2.35,0,0,0,0-.37,3.48,3.48,0,0,0-3.5-2.64,3.3,3.3,0,0,0-3.31,3.16,6.38,6.38,0,0,0,.93,2.23c.81,1.47,2,2.73,2.56,4.36l0,.06v0s0,0,0,0a.1.1,0,0,0-.09,0Z"/><path class="cls-1" d="M92.64,90.29a.11.11,0,0,0,.08,0s0,0,0,0a1.43,1.43,0,0,0-.11.15c-.62.87-1.27,1.79-1.84,2.68q-.48.72-.9,1.47a7.24,7.24,0,0,0-1,2.28c-.17,2.23,2.21,4,4.34,3.62a3.7,3.7,0,0,0,3.22-3.14c0-.08,0-.26,0-.33a2.78,2.78,0,0,0-.2-.95,18.56,18.56,0,0,0-2.68-4.46c-.35-.45-.71-.9-1.08-1.32h0s0,0,0,0l.08,0Zm0-.29a.23.23,0,0,1,.15.1l.09.14c.08.1.3.42.38.53,1,1.45,3.19,4.56,3.25,6.22a4,4,0,0,1-4,3.78c-2.53.08-5-2.34-4-4.91a14.69,14.69,0,0,1,1.76-3.08,26.1,26.1,0,0,1,1.91-2.4s.17-.2.22-.24.1-.13.18-.14Z"/><path class="cls-1" d="M114.74,94.45V94.2h2.65v.25Zm1.18,3.45V94.36h.28V97.9Z"/><path class="cls-1" d="M118.06,97.9V94.2h.27v2l-.1.17a1.67,1.67,0,0,1,.11-.62.9.9,0,0,1,.33-.41,1,1,0,0,1,.57-.15h0a.91.91,0,0,1,.75.31,1.3,1.3,0,0,1,.25.85V97.9H120V96.27a.88.88,0,0,0-.21-.62.73.73,0,0,0-.59-.24.82.82,0,0,0-.62.25.91.91,0,0,0-.23.64v1.6Z"/><path class="cls-1" d="M122.35,98a1.32,1.32,0,0,1-.59-.12,1.19,1.19,0,0,1-.41-.32,1.6,1.6,0,0,1-.23-.45,1.81,1.81,0,0,1-.08-.51v0a1.7,1.7,0,0,1,.08-.51,1.4,1.4,0,0,1,.24-.45,1.13,1.13,0,0,1,.4-.31,1.42,1.42,0,0,1,1.24.07,1.19,1.19,0,0,1,.42.47,1.39,1.39,0,0,1,.14.6v.19h-2.39v-.23h2.21l-.08.11a1.4,1.4,0,0,0-.11-.56.9.9,0,0,0-.34-.38,1,1,0,0,0-.53-.14.94.94,0,0,0-.57.16.89.89,0,0,0-.34.42,1.37,1.37,0,0,0-.12.58,1.45,1.45,0,0,0,.12.59,1,1,0,0,0,.34.43,1,1,0,0,0,.6.16,1.06,1.06,0,0,0,.62-.17.73.73,0,0,0,.29-.43h.26a1.12,1.12,0,0,1-.21.44,1.08,1.08,0,0,1-.4.3A1.4,1.4,0,0,1,122.35,98Z"/><path class="cls-1" d="M125.21,95.47v-.21h1.62v.21Zm.41,2.43V95a.77.77,0,0,1,.2-.58.84.84,0,0,1,.61-.19h.35v.23h-.41a.49.49,0,0,0-.36.13.48.48,0,0,0-.13.35v3Z"/><path class="cls-1" d="M128.34,98a.89.89,0,0,1-.73-.31,1.29,1.29,0,0,1-.25-.84V95.24h.27v1.65a.89.89,0,0,0,.2.6.69.69,0,0,0,.57.23.76.76,0,0,0,.59-.24.84.84,0,0,0,.22-.62V95.24h.27V97.9h-.21V96.83h.06a1.64,1.64,0,0,1-.11.6.85.85,0,0,1-.32.4.91.91,0,0,1-.54.15Z"/><path class="cls-1" d="M130.09,95.45v-.21h1.78v.21Zm1.33,2.48a1.14,1.14,0,0,1-.43-.08.55.55,0,0,1-.29-.25,1,1,0,0,1-.1-.48V94.37h.26v2.8a.52.52,0,0,0,.14.38.49.49,0,0,0,.37.13h.5v.25Z"/><path class="cls-1" d="M133.56,98a.91.91,0,0,1-.73-.31,1.29,1.29,0,0,1-.25-.84V95.24h.28v1.65a.88.88,0,0,0,.19.6.69.69,0,0,0,.57.23.75.75,0,0,0,.59-.24.84.84,0,0,0,.22-.62V95.24h.27V97.9h-.21V96.83h.06a1.64,1.64,0,0,1-.11.6.85.85,0,0,1-.32.4.91.91,0,0,1-.54.15Z"/><path class="cls-1" d="M135.76,97.9V95.24H136v1.12h0a1.26,1.26,0,0,1,.26-.86,1.08,1.08,0,0,1,.84-.28h.09v.24H137a.94.94,0,0,0-.71.24,1,1,0,0,0-.24.71V97.9Z"/><path class="cls-1" d="M138.82,98a1.38,1.38,0,0,1-.59-.12,1.16,1.16,0,0,1-.4-.32,1.4,1.4,0,0,1-.24-.45,1.81,1.81,0,0,1-.08-.51v0a1.7,1.7,0,0,1,.08-.51,1.4,1.4,0,0,1,.24-.45,1.23,1.23,0,0,1,.4-.31,1.25,1.25,0,0,1,.56-.11,1.27,1.27,0,0,1,.69.18,1.1,1.1,0,0,1,.41.47,1.27,1.27,0,0,1,.15.6v.19h-2.4v-.23h2.22l-.08.11a1.25,1.25,0,0,0-.12-.56.81.81,0,0,0-.33-.38,1,1,0,0,0-.54-.14,1,1,0,0,0-.57.16,1,1,0,0,0-.34.42,1.54,1.54,0,0,0-.11.58,1.63,1.63,0,0,0,.11.59,1,1,0,0,0,.35.43,1,1,0,0,0,.59.16,1,1,0,0,0,.62-.17.68.68,0,0,0,.29-.43H140a.9.9,0,0,1-.21.44,1,1,0,0,1-.4.3A1.36,1.36,0,0,1,138.82,98Z"/><path class="cls-1" d="M143.18,98a1.43,1.43,0,0,1-.6-.12,1.56,1.56,0,0,1-.43-.32,1.2,1.2,0,0,1-.26-.45,1.43,1.43,0,0,1-.09-.5v0a1.54,1.54,0,0,1,.09-.52,1.34,1.34,0,0,1,.27-.44,1.16,1.16,0,0,1,.43-.32,1.38,1.38,0,0,1,.59-.11,1.36,1.36,0,0,1,.58.11,1.24,1.24,0,0,1,.43.32,1.34,1.34,0,0,1,.27.44,1.55,1.55,0,0,1,.1.52v0a1.24,1.24,0,0,1-.1.5,1.36,1.36,0,0,1-.26.45,1.56,1.56,0,0,1-.43.32A1.38,1.38,0,0,1,143.18,98Zm0-.25a1.17,1.17,0,0,0,.6-.16,1.09,1.09,0,0,0,.37-.43,1.27,1.27,0,0,0,.13-.58,1.24,1.24,0,0,0-.13-.58,1.05,1.05,0,0,0-.38-.43,1,1,0,0,0-.59-.16,1.08,1.08,0,0,0-.6.16,1,1,0,0,0-.38.43,1.24,1.24,0,0,0-.13.58,1.4,1.4,0,0,0,.12.58,1.21,1.21,0,0,0,.38.43A1.18,1.18,0,0,0,143.18,97.74Z"/><path class="cls-1" d="M145,95.47v-.21h1.62v.21Zm.41,2.43V95a.77.77,0,0,1,.2-.58.84.84,0,0,1,.61-.19h.35v.23h-.41a.49.49,0,0,0-.36.13.45.45,0,0,0-.13.35v3Z"/><path class="cls-1" d="M148.09,94.42V94.2h.67v.22Zm.4,3.48V94.2h.27v3.7Z"/><path class="cls-1" d="M149.5,95.47v-.23h.72v.23Zm.47-.79a.2.2,0,0,1-.16-.06.2.2,0,0,1-.06-.15.23.23,0,0,1,.06-.16.2.2,0,0,1,.16-.06.22.22,0,0,1,.17.06.28.28,0,0,1,.05.16.2.2,0,0,1-.05.15A.22.22,0,0,1,150,94.68Zm0,3.22V95.24h.28V97.9Z"/><path class="cls-1" d="M151.88,97.9l-1-2.66h.29l1,2.66Zm.08,0v-.23h.37v.23Zm.19,0,.85-2.66h.26l-.85,2.66Z"/><path class="cls-1" d="M153.69,95.47v-.23h.72v.23Zm.47-.79a.22.22,0,0,1-.17-.06.25.25,0,0,1-.05-.15.28.28,0,0,1,.05-.16.24.24,0,0,1,.17-.06.2.2,0,0,1,.16.06.23.23,0,0,1,.06.16.25.25,0,0,1,0,.15A.24.24,0,0,1,154.16,94.68Zm0,3.22V95.24h.28V97.9Z"/><path class="cls-1" d="M155.45,97.9V95.24h.22v1.09h-.06a1.58,1.58,0,0,1,.11-.61.92.92,0,0,1,.34-.41,1,1,0,0,1,.56-.14h0a.91.91,0,0,1,.75.31,1.31,1.31,0,0,1,.26.85V97.9h-.28V96.27a.94.94,0,0,0-.2-.62.75.75,0,0,0-.59-.24.86.86,0,0,0-.63.25.89.89,0,0,0-.23.63V97.9Z"/><path class="cls-1" d="M159.67,98.94h-.37l-.37-.05v-.24l.38,0,.38,0a1.57,1.57,0,0,0,.64-.11.63.63,0,0,0,.34-.34,1.7,1.7,0,0,0,.1-.62v-.55l.12-.37a1.32,1.32,0,0,1-.16.64,1,1,0,0,1-.41.44,1.15,1.15,0,0,1-.62.16,1.25,1.25,0,0,1-.53-.11,1.23,1.23,0,0,1-.4-.31,1.41,1.41,0,0,1-.25-.45,1.52,1.52,0,0,1-.09-.51v0a1.5,1.5,0,0,1,.34-1,1.23,1.23,0,0,1,.4-.31,1.37,1.37,0,0,1,1.18,0,1.13,1.13,0,0,1,.41.46,1.26,1.26,0,0,1,.15.62l-.1-.13v-1H161v2.4a1.82,1.82,0,0,1-.13.76.79.79,0,0,1-.43.41A2,2,0,0,1,159.67,98.94Zm.07-1.23a1,1,0,0,0,.53-.13.94.94,0,0,0,.37-.37,1.08,1.08,0,0,0,.13-.54v-.26a1,1,0,0,0-.13-.52.89.89,0,0,0-.36-.36,1.06,1.06,0,0,0-.54-.14.93.93,0,0,0-.56.16,1,1,0,0,0-.36.43,1.32,1.32,0,0,0-.12.57,1.31,1.31,0,0,0,.13.59,1,1,0,0,0,.36.42A1,1,0,0,0,159.74,97.71Z"/><path class="cls-1" d="M111.43,93.18a6,6,0,0,1-2.68-.55,5.11,5.11,0,0,1-1.82-1.43,6,6,0,0,1-1-1.92,6.59,6.59,0,0,1-.33-2v-.35a6.7,6.7,0,0,1,.34-2.11,5.65,5.65,0,0,1,1-1.89,5.3,5.3,0,0,1,1.81-1.36,6.07,6.07,0,0,1,2.59-.51,6.18,6.18,0,0,1,2.71.56,4.68,4.68,0,0,1,1.86,1.57,5.17,5.17,0,0,1,.83,2.37H114.5a2.86,2.86,0,0,0-.56-1.33,2.75,2.75,0,0,0-1.1-.82,3.92,3.92,0,0,0-1.49-.27,3.77,3.77,0,0,0-1.51.29,3,3,0,0,0-1.11.83,3.79,3.79,0,0,0-.67,1.26,5.86,5.86,0,0,0,0,3.18,3.81,3.81,0,0,0,.69,1.27,3.12,3.12,0,0,0,1.12.84,3.81,3.81,0,0,0,1.56.3,3.7,3.7,0,0,0,2.18-.64,2.66,2.66,0,0,0,1.08-1.79h2.25a5.17,5.17,0,0,1-.84,2.25,4.83,4.83,0,0,1-1.85,1.64A6,6,0,0,1,111.43,93.18Z"/><path class="cls-1" d="M124.34,93.18a5.17,5.17,0,0,1-2-.36,4.22,4.22,0,0,1-1.46-1,4.43,4.43,0,0,1-.91-1.41,4.59,4.59,0,0,1-.31-1.64v-.33a4.34,4.34,0,0,1,.33-1.68,4.25,4.25,0,0,1,.92-1.41,4.35,4.35,0,0,1,1.48-1,5.61,5.61,0,0,1,3.9,0,4.35,4.35,0,0,1,1.48,1,4.25,4.25,0,0,1,.92,1.41,4.52,4.52,0,0,1,.31,1.68v.33a4.58,4.58,0,0,1-.3,1.64,4.43,4.43,0,0,1-.91,1.41,4.35,4.35,0,0,1-1.47,1A5.07,5.07,0,0,1,124.34,93.18Zm0-1.87A2.52,2.52,0,0,0,125.7,91a2.35,2.35,0,0,0,.83-1,3.24,3.24,0,0,0,.28-1.38,3.13,3.13,0,0,0-.29-1.4,2.32,2.32,0,0,0-.85-1,2.7,2.7,0,0,0-2.66,0,2.42,2.42,0,0,0-.86,1,3.13,3.13,0,0,0-.3,1.4,3.25,3.25,0,0,0,.29,1.38,2.39,2.39,0,0,0,.85,1A2.46,2.46,0,0,0,124.34,91.31Z"/><path class="cls-1" d="M131.54,83V81.39h3.26V83Zm1.07,9.86V81.39h2.19v11.5Z"/><path class="cls-1" d="M143,93.18a5.14,5.14,0,0,1-2-.36,4.35,4.35,0,0,1-1.47-1,4.24,4.24,0,0,1-.9-1.41,4.38,4.38,0,0,1-.31-1.64v-.33a4.52,4.52,0,0,1,.32-1.68,4.35,4.35,0,0,1,2.4-2.39,5.64,5.64,0,0,1,3.91,0,4.21,4.21,0,0,1,1.47,1,4.1,4.1,0,0,1,.92,1.41,4.52,4.52,0,0,1,.32,1.68v.33a4.25,4.25,0,0,1-2.68,4A5.14,5.14,0,0,1,143,93.18Zm0-1.87a2.51,2.51,0,0,0,1.35-.35,2.3,2.3,0,0,0,.84-1,3.4,3.4,0,0,0,.28-1.38,3.27,3.27,0,0,0-.29-1.4,2.39,2.39,0,0,0-.85-1,2.51,2.51,0,0,0-1.33-.35,2.46,2.46,0,0,0-1.33.35,2.34,2.34,0,0,0-.86,1,3.13,3.13,0,0,0-.3,1.4,3.25,3.25,0,0,0,.29,1.38,2.37,2.37,0,0,0,.84,1A2.52,2.52,0,0,0,143,91.31Z"/><path class="cls-1" d="M151.14,92.89V84.34h1.74V88h-.16a5.79,5.79,0,0,1,.35-2.18,2.63,2.63,0,0,1,1-1.31,3,3,0,0,1,1.71-.44h.09a2.79,2.79,0,0,1,2.32,1A4.69,4.69,0,0,1,159,88v4.9h-2.19V87.8a1.82,1.82,0,0,0-.45-1.28,1.59,1.59,0,0,0-1.23-.48,1.75,1.75,0,0,0-1.3.49,1.81,1.81,0,0,0-.5,1.33v5Z"/><path class="cls-1" d="M164.53,92.7l-2.77-8.36H164l2.63,8.36Zm-1.92,3.56V94.38h1.61a2.13,2.13,0,0,0,.76-.12,1.16,1.16,0,0,0,.51-.37,2,2,0,0,0,.32-.72l2.3-8.83h2.09l-2.54,9.3a4.15,4.15,0,0,1-.7,1.54,2.53,2.53,0,0,1-1.18.82,5.33,5.33,0,0,1-1.77.26Zm2.66-3.56V91h1.83V92.7Z"/></svg>